 http://www.imdb.com/title/tt0421054/

Source: Domino.2005.MULTi.1080p.BluRay.x264-UKDHD Thanks!

Subs: Arabic, Brazilian, Bulgarian, Croatian, Danish, Dutch, English, Finnish, French, German, Greek, Hebrew, Hungarian, Indonesian, Norwegian, Polish, Portuguese, Romanian, Servian, Slovenian, Spanish, Swedish and Vietnamese.

Sample and Screens included.

General
Complete name                            : Domino-720p MP4 AAC x264 BRRip 2005-CC.mp4
Format                                   : MPEG-4
Format profile                           : Base Media
Codec ID                                 : isom
File size                                : 3.05 GiB
Duration                                 : 2h 7mn
Overall bit rate mode                    : Variable
Overall bit rate                         : 3 421 Kbps
Encoded date                             : UTC 2012-12-30 08:55:46

Video
ID                                       : 1
Format                                   : AVC
Format/Info                              : Advanced Video Codec
Format profile                           : High@L4.1
Format settings, CABAC                   : Yes
Format settings, ReFrames                : 5 frames
Codec ID                                 : avc1
Codec ID/Info                            : Advanced Video Coding
Duration                                 : 2h 7mn
Bit rate                                 : 3 075 Kbps
Maximum bit rate                         : 19.2 Mbps
Width                                    : 1 280 pixels
Height                                   : 544 pixels
Display aspect ratio                     : 2.35:1
Frame rate mode                          : Variable
Frame rate                               : 23.976 fps
Minimum frame rate                       : 15.873 fps
Maximum frame rate                       : 24.390 fps
Color space                              : YUV
Chroma subsampling                       : 4:2:0
Bit depth                                : 8 bits
Scan type                                : Progressive
Bits/(Pixel*Frame)                       : 0.184
Stream size                              : 2.70 GiB (89%)
Writing library                          : x264 core 112

Audio
ID                                       : 2
Format                                   : AAC
Format/Info                              : Advanced Audio Codec
Format profile                           : LC
Codec ID                                 : 40
Duration                                 : 2h 7mn
Bit rate mode                            : Variable
Bit rate                                 : 384 Kbps
Maximum bit rate                         : 721 Kbps
Channel(s)                               : 6 channels
Channel positions                        : Front: L C R, Side: L R, LFE
Sampling rate                            : 48.0 KHz
Compression mode                         : Lossy
Delay relative to video                  : 83ms
Stream size                              : 350 MiB (11%)
Language                                 : English

Enjoy...

Requested by romeo49000

Coming soon: Apocalypse Hitler, S.Darko, Twilight Samurai, The Big Heat, Broken Arrow and more..